<?xml version="1.0" encoding="utf-8" standalone="no"?>
<!DOCTYPE svg PUBLIC "-//W3C//DTD SVG 1.1//EN"
  "http://www.w3.org/Graphics/SVG/1.1/DTD/svg11.dtd">
<!-- Created with matplotlib (http://matplotlib.org/) -->
<svg height="276pt" version="1.1" viewBox="0 0 564 276" width="564pt" xmlns="http://www.w3.org/2000/svg" xmlns:xlink="http://www.w3.org/1999/xlink">
 <defs>
  <style type="text/css">
*{stroke-linecap:butt;stroke-linejoin:round;stroke-miterlimit:100000;}
  </style>
 </defs>
 <g id="figure_1">
  <g id="patch_1">
   <path d="M 0 276.48 
L 564.48 276.48 
L 564.48 0 
L 0 0 
z
" style="fill:#ffffff;"/>
  </g>
  <g id="axes_1">
   <g id="patch_2">
    <path d="M 7.2 269.28 
L 557.28 269.28 
L 557.28 7.2 
L 7.2 7.2 
z
" style="fill:#ffffff;"/>
   </g>
   <g id="line2d_1">
    <path clip-path="url(#p0ec6fef757)" d="M 546.701538 12.24 
L 528.381946 20.943187 
L 507.120945 30.798295 
L 487.135111 39.815982 
L 467.130129 48.596932 
L 446.144249 57.537289 
L 427.441524 65.264338 
L 407.863034 73.102957 
L 391.020665 79.63528 
L 371.712038 86.876669 
L 356.555049 92.370168 
L 337.058439 99.181172 
L 320.292751 104.800368 
L 303.792049 110.107868 
L 287.287382 115.186896 
L 270.71274 120.046612 
L 253.190926 124.909475 
L 237.633526 128.978756 
L 223.877829 132.371408 
L 210.289214 135.518812 
L 200.596551 137.580856 
L 198.188466 137.911134 
L 196.759646 137.839187 
L 194.359637 137.435495 
L 167.622753 132.411796 
L 153.455643 130.104481 
L 140.529024 128.253276 
L 127.930182 126.703369 
L 115.637894 125.456555 
L 105.789572 124.665908 
L 96.404513 124.103107 
L 88.195895 123.779582 
L 79.107636 123.627158 
L 70.885052 123.700889 
L 63.322452 123.974266 
L 55.95737 124.463838 
L 49.27269 125.138653 
L 43.452484 125.947835 
L 38.115546 126.921777 
L 33.783785 127.927065 
L 29.610702 129.147405 
L 26.422172 130.321273 
L 24.037615 131.407803 
L 21.983727 132.573703 
L 20.384798 133.738604 
L 19.207556 134.884688 
L 18.421554 135.979288 
L 17.992826 136.93166 
L 17.849916 137.484029 
L 17.778462 138.24 
L 17.987372 139.531628 
L 18.405192 140.471971 
L 19.136378 141.51199 
L 20.076474 142.474106 
L 21.450168 143.550701 
L 23.425028 144.752117 
L 25.672291 145.840534 
L 28.454918 146.936414 
L 31.69471 147.97877 
L 35.933688 149.07988 
L 40.792993 150.078496 
L 46.46647 150.980117 
L 52.397017 151.687112 
L 59.003221 152.247989 
L 66.084232 152.630431 
L 74.365116 152.836776 
L 82.479423 152.823206 
L 91.030478 152.607576 
L 99.762357 152.198119 
L 109.703962 151.523274 
L 120.639717 150.549429 
L 132.085733 149.294571 
L 143.954631 147.760958 
L 156.354237 145.92636 
L 170.567915 143.55421 
L 182.425461 141.373375 
L 197.495866 138.573316 
L 198.816723 138.61752 
L 201.143213 139.003419 
L 207.450084 140.332889 
L 221.089807 143.445572 
L 236.951195 147.328318 
L 252.404939 151.359227 
L 268.871001 155.908746 
L 284.506126 160.460504 
L 300.968816 165.486791 
L 319.366321 171.375707 
L 336.141888 176.985875 
L 352.024677 182.501227 
L 369.006156 188.610136 
L 388.569912 195.910795 
L 408.416953 203.595227 
L 426.883509 210.988672 
L 444.875108 218.411113 
L 463.841518 226.46352 
L 482.876316 234.773884 
L 500.97498 242.882912 
L 522.773408 252.911237 
L 542.792874 262.366888 
L 546.701538 264.24 
L 546.701538 264.24 
" style="fill:none;stroke:#0000ff;stroke-linecap:square;"/>
   </g>
   <g id="patch_3">
    <path d="M 7.2 137.695941 
L 557.28 137.695941 
" style="fill:none;stroke:#000000;stroke-linecap:square;stroke-linejoin:miter;stroke-width:0.8;"/>
   </g>
   <g id="patch_4">
    <path d="M 137.857421 269.28 
L 137.857421 7.2 
" style="fill:none;stroke:#000000;stroke-linecap:square;stroke-linejoin:miter;stroke-width:0.8;"/>
   </g>
   <g id="matplotlib.axis_1">
    <g id="xtick_1">
     <g id="line2d_2">
      <defs>
       <path d="M 0 0 
L 0 -4 
" id="ma3851c3f60" style="stroke:#000000;stroke-width:0.5;"/>
      </defs>
      <g>
       <use style="stroke:#000000;stroke-width:0.5;" x="53.5183791622" xlink:href="#ma3851c3f60" y="137.695941201"/>
      </g>
     </g>
     <g id="text_1">
      <!-- -5 -->
      <defs>
       <path d="M 4.890625 31.390625 
L 31.203125 31.390625 
L 31.203125 23.390625 
L 4.890625 23.390625 
z
" id="BitstreamVeraSans-Roman-2d"/>
       <path d="M 10.796875 72.90625 
L 49.515625 72.90625 
L 49.515625 64.59375 
L 19.828125 64.59375 
L 19.828125 46.734375 
Q 21.96875 47.46875 24.109375 47.828125 
Q 26.265625 48.1875 28.421875 48.1875 
Q 40.625 48.1875 47.75 41.5 
Q 54.890625 34.8125 54.890625 23.390625 
Q 54.890625 11.625 47.5625 5.09375 
Q 40.234375 -1.421875 26.90625 -1.421875 
Q 22.3125 -1.421875 17.546875 -0.640625 
Q 12.796875 0.140625 7.71875 1.703125 
L 7.71875 11.625 
Q 12.109375 9.234375 16.796875 8.0625 
Q 21.484375 6.890625 26.703125 6.890625 
Q 35.15625 6.890625 40.078125 11.328125 
Q 45.015625 15.765625 45.015625 23.390625 
Q 45.015625 31 40.078125 35.4375 
Q 35.15625 39.890625 26.703125 39.890625 
Q 22.75 39.890625 18.8125 39.015625 
Q 14.890625 38.140625 10.796875 36.28125 
z
" id="BitstreamVeraSans-Roman-35"/>
      </defs>
      <g transform="translate(48.5332229122 149.294378701)scale(0.1 -0.1)">
       <use xlink:href="#BitstreamVeraSans-Roman-2d"/>
       <use x="36.083984375" xlink:href="#BitstreamVeraSans-Roman-35"/>
      </g>
     </g>
    </g>
    <g id="xtick_2">
     <g id="line2d_3">
      <g>
       <use style="stroke:#000000;stroke-width:0.5;" x="137.857420506" xlink:href="#ma3851c3f60" y="137.695941201"/>
      </g>
     </g>
    </g>
    <g id="xtick_3">
     <g id="line2d_4">
      <g>
       <use style="stroke:#000000;stroke-width:0.5;" x="222.196461849" xlink:href="#ma3851c3f60" y="137.695941201"/>
      </g>
     </g>
     <g id="text_2">
      <!-- 5 -->
      <g transform="translate(219.015211849 149.294378701)scale(0.1 -0.1)">
       <use xlink:href="#BitstreamVeraSans-Roman-35"/>
      </g>
     </g>
    </g>
    <g id="xtick_4">
     <g id="line2d_5">
      <g>
       <use style="stroke:#000000;stroke-width:0.5;" x="306.535503192" xlink:href="#ma3851c3f60" y="137.695941201"/>
      </g>
     </g>
     <g id="text_3">
      <!-- 10 -->
      <defs>
       <path d="M 31.78125 66.40625 
Q 24.171875 66.40625 20.328125 58.90625 
Q 16.5 51.421875 16.5 36.375 
Q 16.5 21.390625 20.328125 13.890625 
Q 24.171875 6.390625 31.78125 6.390625 
Q 39.453125 6.390625 43.28125 13.890625 
Q 47.125 21.390625 47.125 36.375 
Q 47.125 51.421875 43.28125 58.90625 
Q 39.453125 66.40625 31.78125 66.40625 
M 31.78125 74.21875 
Q 44.046875 74.21875 50.515625 64.515625 
Q 56.984375 54.828125 56.984375 36.375 
Q 56.984375 17.96875 50.515625 8.265625 
Q 44.046875 -1.421875 31.78125 -1.421875 
Q 19.53125 -1.421875 13.0625 8.265625 
Q 6.59375 17.96875 6.59375 36.375 
Q 6.59375 54.828125 13.0625 64.515625 
Q 19.53125 74.21875 31.78125 74.21875 
" id="BitstreamVeraSans-Roman-30"/>
       <path d="M 12.40625 8.296875 
L 28.515625 8.296875 
L 28.515625 63.921875 
L 10.984375 60.40625 
L 10.984375 69.390625 
L 28.421875 72.90625 
L 38.28125 72.90625 
L 38.28125 8.296875 
L 54.390625 8.296875 
L 54.390625 0 
L 12.40625 0 
z
" id="BitstreamVeraSans-Roman-31"/>
      </defs>
      <g transform="translate(300.173003192 149.294378701)scale(0.1 -0.1)">
       <use xlink:href="#BitstreamVeraSans-Roman-31"/>
       <use x="63.623046875" xlink:href="#BitstreamVeraSans-Roman-30"/>
      </g>
     </g>
    </g>
    <g id="xtick_5">
     <g id="line2d_6">
      <g>
       <use style="stroke:#000000;stroke-width:0.5;" x="390.874544536" xlink:href="#ma3851c3f60" y="137.695941201"/>
      </g>
     </g>
     <g id="text_4">
      <!-- 15 -->
      <g transform="translate(384.512044536 149.294378701)scale(0.1 -0.1)">
       <use xlink:href="#BitstreamVeraSans-Roman-31"/>
       <use x="63.623046875" xlink:href="#BitstreamVeraSans-Roman-35"/>
      </g>
     </g>
    </g>
    <g id="xtick_6">
     <g id="line2d_7">
      <g>
       <use style="stroke:#000000;stroke-width:0.5;" x="475.213585879" xlink:href="#ma3851c3f60" y="137.695941201"/>
      </g>
     </g>
     <g id="text_5">
      <!-- 20 -->
      <defs>
       <path d="M 19.1875 8.296875 
L 53.609375 8.296875 
L 53.609375 0 
L 7.328125 0 
L 7.328125 8.296875 
Q 12.9375 14.109375 22.625 23.890625 
Q 32.328125 33.6875 34.8125 36.53125 
Q 39.546875 41.84375 41.421875 45.53125 
Q 43.3125 49.21875 43.3125 52.78125 
Q 43.3125 58.59375 39.234375 62.25 
Q 35.15625 65.921875 28.609375 65.921875 
Q 23.96875 65.921875 18.8125 64.3125 
Q 13.671875 62.703125 7.8125 59.421875 
L 7.8125 69.390625 
Q 13.765625 71.78125 18.9375 73 
Q 24.125 74.21875 28.421875 74.21875 
Q 39.75 74.21875 46.484375 68.546875 
Q 53.21875 62.890625 53.21875 53.421875 
Q 53.21875 48.921875 51.53125 44.890625 
Q 49.859375 40.875 45.40625 35.40625 
Q 44.1875 33.984375 37.640625 27.21875 
Q 31.109375 20.453125 19.1875 8.296875 
" id="BitstreamVeraSans-Roman-32"/>
      </defs>
      <g transform="translate(468.851085879 149.294378701)scale(0.1 -0.1)">
       <use xlink:href="#BitstreamVeraSans-Roman-32"/>
       <use x="63.623046875" xlink:href="#BitstreamVeraSans-Roman-30"/>
      </g>
     </g>
    </g>
    <g id="xtick_7">
     <g id="line2d_8">
      <defs>
       <path d="M 0 0 
L 0 -2 
" id="m188065f02b" style="stroke:#000000;stroke-width:0.5;"/>
      </defs>
      <g>
       <use style="stroke:#000000;stroke-width:0.5;" x="19.7827626249" xlink:href="#m188065f02b" y="137.695941201"/>
      </g>
     </g>
    </g>
    <g id="xtick_8">
     <g id="line2d_9">
      <g>
       <use style="stroke:#000000;stroke-width:0.5;" x="36.6505708936" xlink:href="#m188065f02b" y="137.695941201"/>
      </g>
     </g>
    </g>
    <g id="xtick_9">
     <g id="line2d_10">
      <g>
       <use style="stroke:#000000;stroke-width:0.5;" x="70.3861874309" xlink:href="#m188065f02b" y="137.695941201"/>
      </g>
     </g>
    </g>
    <g id="xtick_10">
     <g id="line2d_11">
      <g>
       <use style="stroke:#000000;stroke-width:0.5;" x="87.2539956996" xlink:href="#m188065f02b" y="137.695941201"/>
      </g>
     </g>
    </g>
    <g id="xtick_11">
     <g id="line2d_12">
      <g>
       <use style="stroke:#000000;stroke-width:0.5;" x="104.121803968" xlink:href="#m188065f02b" y="137.695941201"/>
      </g>
     </g>
    </g>
    <g id="xtick_12">
     <g id="line2d_13">
      <g>
       <use style="stroke:#000000;stroke-width:0.5;" x="120.989612237" xlink:href="#m188065f02b" y="137.695941201"/>
      </g>
     </g>
    </g>
    <g id="xtick_13">
     <g id="line2d_14">
      <g>
       <use style="stroke:#000000;stroke-width:0.5;" x="154.725228774" xlink:href="#m188065f02b" y="137.695941201"/>
      </g>
     </g>
    </g>
    <g id="xtick_14">
     <g id="line2d_15">
      <g>
       <use style="stroke:#000000;stroke-width:0.5;" x="171.593037043" xlink:href="#m188065f02b" y="137.695941201"/>
      </g>
     </g>
    </g>
    <g id="xtick_15">
     <g id="line2d_16">
      <g>
       <use style="stroke:#000000;stroke-width:0.5;" x="188.460845312" xlink:href="#m188065f02b" y="137.695941201"/>
      </g>
     </g>
    </g>
    <g id="xtick_16">
     <g id="line2d_17">
      <g>
       <use style="stroke:#000000;stroke-width:0.5;" x="205.32865358" xlink:href="#m188065f02b" y="137.695941201"/>
      </g>
     </g>
    </g>
    <g id="xtick_17">
     <g id="line2d_18">
      <g>
       <use style="stroke:#000000;stroke-width:0.5;" x="239.064270118" xlink:href="#m188065f02b" y="137.695941201"/>
      </g>
     </g>
    </g>
    <g id="xtick_18">
     <g id="line2d_19">
      <g>
       <use style="stroke:#000000;stroke-width:0.5;" x="255.932078386" xlink:href="#m188065f02b" y="137.695941201"/>
      </g>
     </g>
    </g>
    <g id="xtick_19">
     <g id="line2d_20">
      <g>
       <use style="stroke:#000000;stroke-width:0.5;" x="272.799886655" xlink:href="#m188065f02b" y="137.695941201"/>
      </g>
     </g>
    </g>
    <g id="xtick_20">
     <g id="line2d_21">
      <g>
       <use style="stroke:#000000;stroke-width:0.5;" x="289.667694924" xlink:href="#m188065f02b" y="137.695941201"/>
      </g>
     </g>
    </g>
    <g id="xtick_21">
     <g id="line2d_22">
      <g>
       <use style="stroke:#000000;stroke-width:0.5;" x="323.403311461" xlink:href="#m188065f02b" y="137.695941201"/>
      </g>
     </g>
    </g>
    <g id="xtick_22">
     <g id="line2d_23">
      <g>
       <use style="stroke:#000000;stroke-width:0.5;" x="340.27111973" xlink:href="#m188065f02b" y="137.695941201"/>
      </g>
     </g>
    </g>
    <g id="xtick_23">
     <g id="line2d_24">
      <g>
       <use style="stroke:#000000;stroke-width:0.5;" x="357.138927998" xlink:href="#m188065f02b" y="137.695941201"/>
      </g>
     </g>
    </g>
    <g id="xtick_24">
     <g id="line2d_25">
      <g>
       <use style="stroke:#000000;stroke-width:0.5;" x="374.006736267" xlink:href="#m188065f02b" y="137.695941201"/>
      </g>
     </g>
    </g>
    <g id="xtick_25">
     <g id="line2d_26">
      <g>
       <use style="stroke:#000000;stroke-width:0.5;" x="407.742352804" xlink:href="#m188065f02b" y="137.695941201"/>
      </g>
     </g>
    </g>
    <g id="xtick_26">
     <g id="line2d_27">
      <g>
       <use style="stroke:#000000;stroke-width:0.5;" x="424.610161073" xlink:href="#m188065f02b" y="137.695941201"/>
      </g>
     </g>
    </g>
    <g id="xtick_27">
     <g id="line2d_28">
      <g>
       <use style="stroke:#000000;stroke-width:0.5;" x="441.477969342" xlink:href="#m188065f02b" y="137.695941201"/>
      </g>
     </g>
    </g>
    <g id="xtick_28">
     <g id="line2d_29">
      <g>
       <use style="stroke:#000000;stroke-width:0.5;" x="458.34577761" xlink:href="#m188065f02b" y="137.695941201"/>
      </g>
     </g>
    </g>
    <g id="xtick_29">
     <g id="line2d_30">
      <g>
       <use style="stroke:#000000;stroke-width:0.5;" x="492.081394148" xlink:href="#m188065f02b" y="137.695941201"/>
      </g>
     </g>
    </g>
    <g id="xtick_30">
     <g id="line2d_31">
      <g>
       <use style="stroke:#000000;stroke-width:0.5;" x="508.949202416" xlink:href="#m188065f02b" y="137.695941201"/>
      </g>
     </g>
    </g>
    <g id="xtick_31">
     <g id="line2d_32">
      <g>
       <use style="stroke:#000000;stroke-width:0.5;" x="525.817010685" xlink:href="#m188065f02b" y="137.695941201"/>
      </g>
     </g>
    </g>
    <g id="xtick_32">
     <g id="line2d_33">
      <g>
       <use style="stroke:#000000;stroke-width:0.5;" x="542.684818954" xlink:href="#m188065f02b" y="137.695941201"/>
      </g>
     </g>
    </g>
   </g>
   <g id="matplotlib.axis_2">
    <g id="ytick_1">
     <g id="line2d_34">
      <defs>
       <path d="M 0 0 
L 4 0 
" id="m0e6cc85e28" style="stroke:#000000;stroke-width:0.5;"/>
      </defs>
      <g>
       <use style="stroke:#000000;stroke-width:0.5;" x="137.857420506" xlink:href="#m0e6cc85e28" y="246.507701008"/>
      </g>
     </g>
     <g id="text_6">
      <!-- -100 -->
      <g transform="translate(111.162108006 249.267076008)scale(0.1 -0.1)">
       <use xlink:href="#BitstreamVeraSans-Roman-2d"/>
       <use x="36.083984375" xlink:href="#BitstreamVeraSans-Roman-31"/>
       <use x="99.70703125" xlink:href="#BitstreamVeraSans-Roman-30"/>
       <use x="163.330078125" xlink:href="#BitstreamVeraSans-Roman-30"/>
      </g>
     </g>
    </g>
    <g id="ytick_2">
     <g id="line2d_35">
      <g>
       <use style="stroke:#000000;stroke-width:0.5;" x="137.857420506" xlink:href="#m0e6cc85e28" y="192.101821105"/>
      </g>
     </g>
     <g id="text_7">
      <!-- -50 -->
      <g transform="translate(117.524608006 194.861196105)scale(0.1 -0.1)">
       <use xlink:href="#BitstreamVeraSans-Roman-2d"/>
       <use x="36.083984375" xlink:href="#BitstreamVeraSans-Roman-35"/>
       <use x="99.70703125" xlink:href="#BitstreamVeraSans-Roman-30"/>
      </g>
     </g>
    </g>
    <g id="ytick_3">
     <g id="line2d_36">
      <g>
       <use style="stroke:#000000;stroke-width:0.5;" x="137.857420506" xlink:href="#m0e6cc85e28" y="137.695941201"/>
      </g>
     </g>
    </g>
    <g id="ytick_4">
     <g id="line2d_37">
      <g>
       <use style="stroke:#000000;stroke-width:0.5;" x="137.857420506" xlink:href="#m0e6cc85e28" y="83.2900612973"/>
      </g>
     </g>
     <g id="text_8">
      <!-- 50 -->
      <g transform="translate(121.132420506 86.0494362973)scale(0.1 -0.1)">
       <use xlink:href="#BitstreamVeraSans-Roman-35"/>
       <use x="63.623046875" xlink:href="#BitstreamVeraSans-Roman-30"/>
      </g>
     </g>
    </g>
    <g id="ytick_5">
     <g id="line2d_38">
      <g>
       <use style="stroke:#000000;stroke-width:0.5;" x="137.857420506" xlink:href="#m0e6cc85e28" y="28.8841813937"/>
      </g>
     </g>
     <g id="text_9">
      <!-- 100 -->
      <g transform="translate(114.769920506 31.6435563937)scale(0.1 -0.1)">
       <use xlink:href="#BitstreamVeraSans-Roman-31"/>
       <use x="63.623046875" xlink:href="#BitstreamVeraSans-Roman-30"/>
       <use x="127.24609375" xlink:href="#BitstreamVeraSans-Roman-30"/>
      </g>
     </g>
    </g>
    <g id="ytick_6">
     <g id="line2d_39">
      <defs>
       <path d="M 0 0 
L 2 0 
" id="m57cb996938" style="stroke:#000000;stroke-width:0.5;"/>
      </defs>
      <g>
       <use style="stroke:#000000;stroke-width:0.5;" x="137.857420506" xlink:href="#m57cb996938" y="268.27005297"/>
      </g>
     </g>
    </g>
    <g id="ytick_7">
     <g id="line2d_40">
      <g>
       <use style="stroke:#000000;stroke-width:0.5;" x="137.857420506" xlink:href="#m57cb996938" y="257.388876989"/>
      </g>
     </g>
    </g>
    <g id="ytick_8">
     <g id="line2d_41">
      <g>
       <use style="stroke:#000000;stroke-width:0.5;" x="137.857420506" xlink:href="#m57cb996938" y="235.626525027"/>
      </g>
     </g>
    </g>
    <g id="ytick_9">
     <g id="line2d_42">
      <g>
       <use style="stroke:#000000;stroke-width:0.5;" x="137.857420506" xlink:href="#m57cb996938" y="224.745349047"/>
      </g>
     </g>
    </g>
    <g id="ytick_10">
     <g id="line2d_43">
      <g>
       <use style="stroke:#000000;stroke-width:0.5;" x="137.857420506" xlink:href="#m57cb996938" y="213.864173066"/>
      </g>
     </g>
    </g>
    <g id="ytick_11">
     <g id="line2d_44">
      <g>
       <use style="stroke:#000000;stroke-width:0.5;" x="137.857420506" xlink:href="#m57cb996938" y="202.982997085"/>
      </g>
     </g>
    </g>
    <g id="ytick_12">
     <g id="line2d_45">
      <g>
       <use style="stroke:#000000;stroke-width:0.5;" x="137.857420506" xlink:href="#m57cb996938" y="181.220645124"/>
      </g>
     </g>
    </g>
    <g id="ytick_13">
     <g id="line2d_46">
      <g>
       <use style="stroke:#000000;stroke-width:0.5;" x="137.857420506" xlink:href="#m57cb996938" y="170.339469143"/>
      </g>
     </g>
    </g>
    <g id="ytick_14">
     <g id="line2d_47">
      <g>
       <use style="stroke:#000000;stroke-width:0.5;" x="137.857420506" xlink:href="#m57cb996938" y="159.458293162"/>
      </g>
     </g>
    </g>
    <g id="ytick_15">
     <g id="line2d_48">
      <g>
       <use style="stroke:#000000;stroke-width:0.5;" x="137.857420506" xlink:href="#m57cb996938" y="148.577117182"/>
      </g>
     </g>
    </g>
    <g id="ytick_16">
     <g id="line2d_49">
      <g>
       <use style="stroke:#000000;stroke-width:0.5;" x="137.857420506" xlink:href="#m57cb996938" y="126.81476522"/>
      </g>
     </g>
    </g>
    <g id="ytick_17">
     <g id="line2d_50">
      <g>
       <use style="stroke:#000000;stroke-width:0.5;" x="137.857420506" xlink:href="#m57cb996938" y="115.93358924"/>
      </g>
     </g>
    </g>
    <g id="ytick_18">
     <g id="line2d_51">
      <g>
       <use style="stroke:#000000;stroke-width:0.5;" x="137.857420506" xlink:href="#m57cb996938" y="105.052413259"/>
      </g>
     </g>
    </g>
    <g id="ytick_19">
     <g id="line2d_52">
      <g>
       <use style="stroke:#000000;stroke-width:0.5;" x="137.857420506" xlink:href="#m57cb996938" y="94.1712372781"/>
      </g>
     </g>
    </g>
    <g id="ytick_20">
     <g id="line2d_53">
      <g>
       <use style="stroke:#000000;stroke-width:0.5;" x="137.857420506" xlink:href="#m57cb996938" y="72.4088853166"/>
      </g>
     </g>
    </g>
    <g id="ytick_21">
     <g id="line2d_54">
      <g>
       <use style="stroke:#000000;stroke-width:0.5;" x="137.857420506" xlink:href="#m57cb996938" y="61.5277093359"/>
      </g>
     </g>
    </g>
    <g id="ytick_22">
     <g id="line2d_55">
      <g>
       <use style="stroke:#000000;stroke-width:0.5;" x="137.857420506" xlink:href="#m57cb996938" y="50.6465333552"/>
      </g>
     </g>
    </g>
    <g id="ytick_23">
     <g id="line2d_56">
      <g>
       <use style="stroke:#000000;stroke-width:0.5;" x="137.857420506" xlink:href="#m57cb996938" y="39.7653573744"/>
      </g>
     </g>
    </g>
    <g id="ytick_24">
     <g id="line2d_57">
      <g>
       <use style="stroke:#000000;stroke-width:0.5;" x="137.857420506" xlink:href="#m57cb996938" y="18.003005413"/>
      </g>
     </g>
    </g>
   </g>
  </g>
 </g>
 <defs>
  <clipPath id="p0ec6fef757">
   <rect height="262.08" width="550.08" x="7.2" y="7.2"/>
  </clipPath>
 </defs>
</svg>
